<?xml version="1.0" encoding="UTF-8"?>
<svg width="49px" height="58px" viewBox="0 0 49 58" version="1.1" xmlns="http://www.w3.org/2000/svg" xmlns:xlink="http://www.w3.org/1999/xlink">
    <title>Gift</title>
    <g id="Symbols" stroke="none" stroke-width="1" fill="none" fill-rule="evenodd">
        <g id="Icons./Gift-box" transform="translate(-20.000000, -16.000000)" stroke="#000000">
            <g id="Gift" transform="translate(21.000000, 17.000000)">
                <polygon id="Path-2" stroke-linejoin="round" points="1.81118881 21 45.8834499 21 45.8834499 56 1.81118881 56"></polygon>
                <polygon id="Path-3" stroke-linejoin="round" points="5.24016367e-17 13.3636364 5.24016367e-17 21 47.0909091 21 47.0909091 13.3636364"></polygon>
                <path d="M14.3818182,0 C14.3818182,0 17.5571885,4.24242424 23.9079291,12.7272727 L32.8363636,0" id="Path-4" stroke-linecap="round" stroke-linejoin="round"></path>
                <g id="Group" transform="translate(5.090909, 3.500000)">
                    <path d="M18.4545455,9.54545455 C15.834593,6.35182567 13.5620205,4.12851234 11.6368277,2.87551456 C8.74903859,0.996017881 6.57242937,-0.218908701 3.83889569,0.0329645425 C1.10536201,0.284837786 -0.184645742,1.91806596 0.0212768554,3.94579457 C0.227199453,5.97352318 2.45855804,7.5503876 5.55953575,8.13223671 C7.62685423,8.52013611 11.9251908,8.99120873 18.4545455,9.54545455 Z" id="Path-5"></path>
                    <path d="M37.5454545,9.54545455 C34.9255021,6.35182567 32.6529295,4.12851234 30.7277368,2.87551456 C27.8399477,0.996017881 25.6633385,-0.218908701 22.9298048,0.0329645425 C20.1962711,0.284837786 18.9062633,1.91806596 19.1121859,3.94579457 C19.3181085,5.97352318 21.5494671,7.5503876 24.6504448,8.13223671 C26.7177633,8.52013611 31.0160999,8.99120873 37.5454545,9.54545455 Z" id="Path-5-Copy" transform="translate(28.318182, 4.772727) scale(-1, 1) translate(-28.318182, -4.772727) "></path>
                </g>
                <path d="M23.9343648,13.3636364 C23.9343648,13.8722212 23.8872125,28.0843424 23.7929079,56" id="Path-6" stroke-linecap="round"></path>
            </g>
        </g>
    </g>
</svg>