<svg id="Слой_1" data-name="Слой 1" xmlns="http://www.w3.org/2000/svg" width="89.36" height="44.88" viewBox="0 0 89.36 44.88"><g id="Shop"><path d="M2.9,38.22V53.14a1.6,1.6,0,0,0,1.6,1.6H27.85a1.6,1.6,0,0,0,1.59-1.6V38.59" transform="translate(-0.44 -22.1)" style="fill:none;stroke:#000;stroke-linecap:round;stroke-width:0.7000000000000001px"/><line x1="11.14" y1="19.43" x2="11.14" y2="32.64" style="fill:none;stroke:#000;stroke-linecap:round;stroke-width:0.7000000000000001px"/><line x1="8.82" y1="25.06" x2="8.82" y2="26.89" style="fill:none;stroke:#000;stroke-linecap:round;stroke-width:0.7000000000000001px"/><path d="M19.05,28v7.6a2.93,2.93,0,0,1-2.93,2.92h-.45a2.62,2.62,0,0,1-2.61-2.74L13.42,28l-.37,7.82a2.71,2.71,0,0,1-2.7,2.58h0a3.25,3.25,0,0,1-3.29-3.92L8.28,28,6.8,35.83a3,3,0,0,1-3,2.47h0a3,3,0,0,1-2.81-4L3.15,28H24.92" transform="translate(-0.44 -22.1)" style="fill:none;stroke:#000;stroke-linecap:round;stroke-width:0.7000000000000001px"/><path d="M19.05,35.53v.36a2.82,2.82,0,0,0,2.82,2.82h0a3.34,3.34,0,0,0,3.27-4.05L23.7,28" transform="translate(-0.44 -22.1)" style="fill:none;stroke:#000;stroke-linecap:round;stroke-width:0.7000000000000001px"/><path d="M25.16,34.68l.53,1.93a2.86,2.86,0,0,0,2.75,2.1h0a3,3,0,0,0,2.78-3.94l-.43-1.32" transform="translate(-0.44 -22.1)" style="fill:none;stroke:#000;stroke-linecap:round;stroke-width:0.7000000000000001px"/><circle cx="29.98" cy="5.85" r="5.5" style="fill:none;stroke:#000;stroke-linecap:round;stroke-width:0.7000000000000001px"/><path d="M27.73,27.22l1.74,2.06a.3.3,0,0,0,.44,0l2.84-3.41" transform="translate(-0.44 -22.1)" style="fill:none;stroke:#000;stroke-linecap:round;stroke-width:0.7000000000000001px"/></g><g id="Arrow"><line x1="43.32" y1="22.98" x2="50.9" y2="22.98" style="fill:none;stroke:#000;stroke-linecap:round;stroke-width:0.7000000000000001px"/><path d="M52.56,42.63l2.13,2.13a.44.44,0,0,1,0,.63l-2.13,2.13" transform="translate(-0.44 -22.1)" style="fill:none;stroke:#000;stroke-linecap:round;stroke-width:0.7000000000000001px"/></g><g id="Human"><circle cx="65.88" cy="17.05" r="2.08" style="fill:none;stroke:#000;stroke-linecap:round;stroke-width:0.7000000000000001px"/><path d="M64.49,41.47l-1.22,1.21a.48.48,0,0,0-.13.31v2.83a.67.67,0,0,0,.67.66h.56" transform="translate(-0.44 -22.1)" style="fill:none;stroke:#000;stroke-linecap:round;stroke-width:0.7000000000000001px"/><path d="M64.37,43.55v8a.54.54,0,0,0,.53.54h.91a.51.51,0,0,0,.51-.51V47.22" transform="translate(-0.44 -22.1)" style="fill:none;stroke:#000;stroke-linecap:round;stroke-width:0.7000000000000001px"/><path d="M68.28,43.55v7.94a.62.62,0,0,1-.62.62h-.48" transform="translate(-0.44 -22.1)" style="fill:none;stroke:#000;stroke-linecap:round;stroke-width:0.7000000000000001px"/><path d="M68,41.47l1.39,1.39a.24.24,0,0,1,.07.18v2.8a.63.63,0,0,1-.63.64h-.59" transform="translate(-0.44 -22.1)" style="fill:none;stroke:#000;stroke-linecap:round;stroke-width:0.7000000000000001px"/></g><line x1="69.55" y1="18.76" x2="71.14" y2="16.44" style="fill:none;stroke:#000;stroke-linecap:round;stroke-width:0.7000000000000001px"/><path d="M71,37.55l1.09-.11a.18.18,0,0,1,.18.12l.32,1" transform="translate(-0.44 -22.1)" style="fill:none;stroke:#000;stroke-linecap:round;stroke-width:0.7000000000000001px"/><path d="M74.64,35.35V31.56a.2.2,0,0,0-.1-.18L70.17,29a.2.2,0,0,0-.3.17v4.94a.21.21,0,0,0,.1.17L74.54,37a.18.18,0,0,0,.2,0l4.57-2.69a.19.19,0,0,0,.1-.17V29a.19.19,0,0,0-.1-.17l-4.57-2.7a.23.23,0,0,0-.2,0L70,29" transform="translate(-0.44 -22.1)" style="fill:none;stroke:#000;stroke-linecap:round;stroke-width:0.7000000000000001px"/><line x1="78.85" y1="6.77" x2="74.2" y2="9.34" style="fill:none;stroke:#000;stroke-linecap:round;stroke-width:0.7000000000000001px"/><line x1="76.59" y1="15.27" x2="78.18" y2="17.6" style="fill:none;stroke:#000;stroke-linecap:round;stroke-width:0.7000000000000001px"/><path d="M79.6,39.69l-.2,1a.24.24,0,0,1-.28.18L78,40.67" transform="translate(-0.44 -22.1)" style="fill:none;stroke:#000;stroke-linecap:round;stroke-width:0.7000000000000001px"/><g id="Human-2" data-name="Human"><circle cx="82.52" cy="16.8" r="2.08" style="fill:none;stroke:#000;stroke-linecap:round;stroke-width:0.7000000000000001px"/><path d="M81.13,41.22l-1.22,1.22a.44.44,0,0,0-.13.31v2.82a.67.67,0,0,0,.66.67H81" transform="translate(-0.44 -22.1)" style="fill:none;stroke:#000;stroke-linecap:round;stroke-width:0.7000000000000001px"/><path d="M81,43.3v8a.54.54,0,0,0,.54.53h.91a.51.51,0,0,0,.51-.51V47" transform="translate(-0.44 -22.1)" style="fill:none;stroke:#000;stroke-linecap:round;stroke-width:0.7000000000000001px"/><path d="M84.92,43.3v7.94a.63.63,0,0,1-.63.62h-.47" transform="translate(-0.44 -22.1)" style="fill:none;stroke:#000;stroke-linecap:round;stroke-width:0.7000000000000001px"/><path d="M84.67,41.22l1.4,1.4a.26.26,0,0,1,.07.17V45.6a.64.64,0,0,1-.64.64h-.58" transform="translate(-0.44 -22.1)" style="fill:none;stroke:#000;stroke-linecap:round;stroke-width:0.7000000000000001px"/></g><g id="Aquae_Jewels" data-name="Aquae Jewels"><path d="M2.83,65.64H2.05L1.9,66.7H1.17L2,61.9h1l.79,4.8H3Zm-.09-.7-.3-2-.29,2Z" transform="translate(-0.44 -22.1)"/><path d="M6.68,66.27V67a.94.94,0,0,1-.43-.08A.67.67,0,0,1,6,66.63a1.25,1.25,0,0,1-.59.14,1.14,1.14,0,0,1-.84-.32,1.1,1.1,0,0,1-.32-.84V63a1.1,1.1,0,0,1,1.16-1.16A1.1,1.1,0,0,1,6.55,63v2.62a1.32,1.32,0,0,1-.13.6A.48.48,0,0,0,6.68,66.27ZM5.83,63a.5.5,0,0,0-.12-.35.49.49,0,0,0-.64,0A.5.5,0,0,0,5,63v2.62a.48.48,0,0,0,.12.35.49.49,0,0,0,.64,0,.48.48,0,0,0,.12-.35Z" transform="translate(-0.44 -22.1)"/><path d="M7.63,66.46a1.11,1.11,0,0,1-.32-.82V61.9H8v3.74a.44.44,0,0,0,.11.32.4.4,0,0,0,.29.12.41.41,0,0,0,.3-.12.44.44,0,0,0,.11-.32V61.9h.71v3.74a1.06,1.06,0,0,1-1.12,1.13A1.13,1.13,0,0,1,7.63,66.46Z" transform="translate(-0.44 -22.1)"/><path d="M11.73,65.64H11l-.16,1.06h-.72l.79-4.8h1l.79,4.8h-.74Zm-.09-.7-.3-2-.29,2Z" transform="translate(-0.44 -22.1)"/><path d="M13.19,61.9h2.06v.69H13.92v1.33H15v.69H13.92V66h1.33v.69H13.19Z" transform="translate(-0.44 -22.1)"/><path d="M17,66.7l.09-.65a1.2,1.2,0,0,0,.28,0,.45.45,0,0,0,.38-.14.64.64,0,0,0,.12-.44V61.9h.72v3.73a1.07,1.07,0,0,1-1.13,1.14A1.7,1.7,0,0,1,17,66.7Z" transform="translate(-0.44 -22.1)"/><path d="M19.35,61.9h2.06v.69H20.08v1.33h1.06v.69H20.08V66h1.33v.69H19.35Z" transform="translate(-0.44 -22.1)"/><path d="M25.65,61.9l-.71,4.8h-.8l-.39-3.16-.38,3.16h-.8l-.71-4.8h.74L23,65.14l.4-3.24h.74l.4,3.24.4-3.24Z" transform="translate(-0.44 -22.1)"/><path d="M26.21,61.9h2.07v.69H26.94v1.33H28v.69H26.94V66h1.34v.69H26.21Z" transform="translate(-0.44 -22.1)"/><path d="M28.89,61.9h.72V66h1.3v.69h-2Z" transform="translate(-0.44 -22.1)"/><path d="M31.86,66.62a1.1,1.1,0,0,1-.41-.42,1.23,1.23,0,0,1-.15-.61v-.17l.7-.08v.18a.59.59,0,0,0,.13.41.41.41,0,0,0,.34.15.49.49,0,0,0,.34-.12.47.47,0,0,0,.12-.34.8.8,0,0,0-.13-.44,3.83,3.83,0,0,0-.53-.59,4.25,4.25,0,0,1-.73-.84,1.47,1.47,0,0,1-.2-.74,1.22,1.22,0,0,1,.3-.86,1.17,1.17,0,0,1,1.62,0,1.24,1.24,0,0,1,.29.86v.12l-.7.08v-.14a.73.73,0,0,0-.1-.42.36.36,0,0,0-.3-.14.37.37,0,0,0-.29.12.48.48,0,0,0-.1.34.77.77,0,0,0,.13.43,5.11,5.11,0,0,0,.53.6,5.27,5.27,0,0,1,.73.86,1.39,1.39,0,0,1,.2.72,1.23,1.23,0,0,1-.15.61,1.06,1.06,0,0,1-.42.42,1.2,1.2,0,0,1-.61.15A1.25,1.25,0,0,1,31.86,66.62Z" transform="translate(-0.44 -22.1)"/></g><g id="Consumer"><path d="M61,66.45a1.11,1.11,0,0,1-.32-.82V63A1.14,1.14,0,1,1,63,63v.56h-.71V63a.46.46,0,0,0-.12-.33.41.41,0,0,0-.3-.12.38.38,0,0,0-.3.12.46.46,0,0,0-.12.33v2.66a.45.45,0,0,0,.12.33.38.38,0,0,0,.3.12.41.41,0,0,0,.3-.12.45.45,0,0,0,.12-.33v-.69H63v.69a1.16,1.16,0,0,1-2,.82Z" transform="translate(-0.44 -22.1)"/><path d="M64.62,66.45a1.14,1.14,0,0,1-.32-.84V63a1.17,1.17,0,1,1,2.33,0v2.62a1.14,1.14,0,0,1-.32.84,1.28,1.28,0,0,1-1.69,0ZM65.79,66a.52.52,0,0,0,.11-.35V63a.54.54,0,0,0-.11-.35.45.45,0,0,0-.33-.12.44.44,0,0,0-.32.12A.54.54,0,0,0,65,63v2.62a.52.52,0,0,0,.11.35.44.44,0,0,0,.32.12A.45.45,0,0,0,65.79,66Z" transform="translate(-0.44 -22.1)"/><path d="M68.07,61.9h.81l.92,3.22V61.9h.71v4.8h-.76l-1-3.07V66.7h-.72Z" transform="translate(-0.44 -22.1)"/><path d="M72.42,66.62A1.06,1.06,0,0,1,72,66.2a1.23,1.23,0,0,1-.15-.61v-.17l.7-.08v.18a.59.59,0,0,0,.13.41.41.41,0,0,0,.34.15.49.49,0,0,0,.34-.12.48.48,0,0,0,.13-.34.82.82,0,0,0-.14-.44,3.36,3.36,0,0,0-.53-.59,4.25,4.25,0,0,1-.73-.84A1.46,1.46,0,0,1,71.9,63a1.21,1.21,0,0,1,.29-.86,1.07,1.07,0,0,1,.81-.32,1,1,0,0,1,.81.33,1.24,1.24,0,0,1,.29.86v.12l-.7.08v-.14a.73.73,0,0,0-.1-.42.36.36,0,0,0-.29-.14.38.38,0,0,0-.3.12.48.48,0,0,0-.1.34.71.71,0,0,0,.14.43,4.07,4.07,0,0,0,.52.6,5.27,5.27,0,0,1,.73.86,1.39,1.39,0,0,1,.2.72,1.23,1.23,0,0,1-.15.61,1.1,1.1,0,0,1-.41.42,1.25,1.25,0,0,1-.61.15A1.2,1.2,0,0,1,72.42,66.62Z" transform="translate(-0.44 -22.1)"/><path d="M75.81,66.46a1.1,1.1,0,0,1-.31-.82V61.9h.73v3.74a.4.4,0,0,0,.11.32.41.41,0,0,0,.58,0,.4.4,0,0,0,.11-.32V61.9h.72v3.74a1.06,1.06,0,0,1-1.12,1.13A1.16,1.16,0,0,1,75.81,66.46Z" transform="translate(-0.44 -22.1)"/><path d="M82.53,61.9v4.8H81.8V63.41l-.68,3.29h-.5l-.68-3.29V66.7h-.71V61.9h1L80.88,65l.61-3.06Z" transform="translate(-0.44 -22.1)"/><path d="M84,61.9H86.1v.69H84.76v1.33h1.06v.69H84.76V66H86.1v.69H84Z" transform="translate(-0.44 -22.1)"/><path d="M89.05,66.7l-.53-2h-.38v2h-.72V61.9h1.14a1.07,1.07,0,0,1,1.13,1.15v.52a1.25,1.25,0,0,1-.13.59.87.87,0,0,1-.37.39l.61,2.15ZM88.14,64h.38a.44.44,0,0,0,.33-.11.45.45,0,0,0,.12-.33V63a.41.41,0,0,0-.12-.32.45.45,0,0,0-.33-.12h-.38Z" transform="translate(-0.44 -22.1)"/></g></svg>